<svg xmlns="http://www.w3.org/2000/svg" xmlns:xlink="http://www.w3.org/1999/xlink" viewBox="0 0 500 556.1">
  <defs>
    <style>
      .cls-1 {
        fill: url(#Dégradé_sans_nom_24);
      }

      .cls-2 {
        fill: url(#Dégradé_sans_nom_24-2);
      }

      .cls-3 {
        fill: url(#Dégradé_sans_nom_24-3);
      }

      .cls-4 {
        fill: #fff;
      }
    </style>
    <linearGradient id="Dégradé_sans_nom_24" data-name="Dégradé sans nom 24" x1="429.79" y1="384.14" x2="223.84" y2="5.34" gradientUnits="userSpaceOnUse">
      <stop offset="0" stop-color="#3e3e3e"/>
      <stop offset="0.5" stop-color="#acacac"/>
      <stop offset="1" stop-color="#ababab"/>
    </linearGradient>
    <linearGradient id="Dégradé_sans_nom_24-2" x1="65.77" y1="389.8" x2="500" y2="389.8" xlink:href="#Dégradé_sans_nom_24"/>
    <linearGradient id="Dégradé_sans_nom_24-3" x1="333" y1="145" x2="-17.15" y2="376.38" xlink:href="#Dégradé_sans_nom_24"/>
  </defs>
  <title>logo_data_bw2019</title>
  <g id="Calque_2" data-name="Calque 2">
    <g id="Calque_1-2" data-name="Calque 1">
      <g>
        <path class="cls-1" d="M465.7,113.9,284.3,9.2a68.4,68.4,0,0,0-68.6,0L98.7,76.7A183.2,183.2,0,0,1,363.6,213.5a189,189,0,0,1,1.9,26.2A183.2,183.2,0,0,1,249.6,410.1,183.1,183.1,0,0,0,500,242.6V173.3A68.7,68.7,0,0,0,465.7,113.9Z"/>
        <path class="cls-2" d="M430,383.8c-31.1,24.5-64.9,36.3-107.6,36.3-23.8,0-51.3-8.4-72.1-16.6-67.9-26.8-83.7-87.2-83.7-164.5,0-7.8,4.2-12.1,6.9-15.1,1-1.1-5.4.4-6.9.7C118.4,236,65.8,298.9,65.8,356.3a187.9,187.9,0,0,0,1.8,26.2,183.2,183.2,0,0,0,70.7,119.8l39.8,22.9L215.7,547a68.9,68.9,0,0,0,68.6,0l45.9-26.6,19.9-11.5,115.6-66.7A68.6,68.6,0,0,0,500,382.8V242.6A182.8,182.8,0,0,1,430,383.8Z"/>
        <path class="cls-3" d="M363.6,213.5A183.4,183.4,0,0,0,98.7,76.7L83.3,85.6l-49,28.3A68.7,68.7,0,0,0,0,173.3V382.8a68.6,68.6,0,0,0,34.3,59.4l104,60.1c-37.5-28.5-59.5-71-66.5-119.8a187.9,187.9,0,0,1-1.9-26.2c-.6-51.9,37.1-97.8,82.4-126.9-6.6,16.1-10.1,34.8-10.1,55.1,0,69.2,38.9,119,108,119s108-45.8,108-115Z"/>
        <path class="cls-4" d="M460.2,139.1,266.6,26.3a32.1,32.1,0,0,0-32-.2L40.1,137.4A32.1,32.1,0,0,0,24,165.1l-.9,224.1A32,32,0,0,0,39,417L232.6,529.8a32.2,32.2,0,0,0,32,.1L459.1,418.6A31.8,31.8,0,0,0,475.2,391l.9-224.1A31.9,31.9,0,0,0,460.2,139.1Zm3,16.7L366.8,209V96.2l88.4,51.5A22.2,22.2,0,0,1,463.2,155.8ZM45,146.1,239.6,34.8a22,22,0,0,1,22,.1l47.1,27.5V290.2a58.2,58.2,0,1,1-61.2-58V174a116.2,116.2,0,0,0-91.4,48.4L36.6,154.8A21.9,21.9,0,0,1,45,146.1ZM44,408.3a21.7,21.7,0,0,1-10.9-19.1L34,165.1v-.3l116.5,66a116.3,116.3,0,0,0,94.8,175.6V523.9a26.1,26.1,0,0,1-7.7-2.7ZM465.2,391a22,22,0,0,1-11,19L259.6,521.2a18.2,18.2,0,0,1-4.3,1.9V406.5A116.4,116.4,0,0,0,366.7,296.4h.1v-76l99.3-54.8v1.2Z"/>
      </g>
    </g>
  </g>
</svg>
