<svg height="480pt" viewBox="-47 0 479 480" width="480pt" xmlns="http://www.w3.org/2000/svg"><path d="m40.707031 424h288v32h-288zm0 0" fill="#898890"/><path d="m360.707031 144v128h-224v-144h224zm0 0" fill="#a78966"/><path d="m360.707031 64v64h-224v-32h112l14-32zm0 0" fill="#c0ab91"/><g fill="#e0e0e2"><path d="m328.707031 408c14.53125-.035156 27.273438 9.699219 31.054688 23.730469s-2.339844 28.851562-14.921875 36.125c-12.578125 7.269531-28.476563 5.179687-38.746094-5.101563-10.273438-10.28125-12.347656-26.179687-5.066406-38.753906 5.710937-9.890625 16.261718-15.988281 27.679687-16zm0 0"/><path d="m224.707031 456v8h-80v-48h80zm0 0"/><path d="m160.707031 392h48v24h-48zm0 0"/></g><path d="m160.707031 360h48v32h-48zm0 0" fill="#898890"/><path d="m160.707031 328h48v32h-48zm0 0" fill="#e0e0e2"/><path d="m68.386719 424c7.246093 12.546875 5.15625 28.390625-5.089844 38.632812-10.246094 10.242188-26.09375 12.320313-38.636719 5.070313-12.542968-7.25-18.648437-22.019531-14.886718-36.007813 3.757812-13.992187 16.449218-23.710937 30.933593-23.695312 11.425781-.007812 21.984375 6.097656 27.679688 16zm0 0" fill="#e0e0e2"/><path d="m376.707031 40v24h-256v-24zm0 0" fill="#e0e0e2"/><path d="m80.707031 64v208h240v56h-256c-26.507812 0-48-21.492188-48-48v-224c0-26.507812 21.492188-48 48-48h256v56zm0 0" fill="#898890"/><path d="m376.707031 272v24h-256v-24zm0 0" fill="#e0e0e2"/><path d="m368.707031 72h8c4.417969 0 8-3.582031 8-8v-24c0-4.417969-3.582031-8-8-8h-48v-24c0-4.417969-3.582031-8-8-8h-256c-30.914062.0351562-55.964843 25.085938-56 56v224c.035157 30.914062 25.085938 55.964844 56 56h88v16h-8v16h8v16h-8v16h8v8h-8c-4.417969 0-8 3.582031-8 8h-64.207031c-10.332031-13.773438-28.316406-19.390625-44.648438-13.949219-16.335937 5.445313-27.351562 20.730469-27.351562 37.949219s11.015625 32.503906 27.351562 37.949219c16.332032 5.441406 34.316407-.175781 44.648438-13.949219h64.207031c0 4.417969 3.582031 8 8 8h80c4.417969 0 8-3.582031 8-8h64.207031c10.332032 13.773438 28.316407 19.390625 44.652344 13.949219 16.332032-5.445313 27.347656-20.730469 27.347656-37.949219s-11.015624-32.503906-27.347656-37.949219c-16.335937-5.441406-34.320312.175781-44.652344 13.949219h-64.207031c0-4.417969-3.582031-8-8-8h-8v-8h8v-16h-8v-16h8v-16h-8v-16h104c4.417969 0 8-3.582031 8-8v-24h48c4.417969 0 8-3.582031 8-8v-24c0-4.417969-3.582031-8-8-8h-8zm-328 392c-13.253906 0-24-10.746094-24-24s10.746094-24 24-24c13.253907 0 24 10.746094 24 24s-10.746093 24-24 24zm39.199219-16c1.078125-5.277344 1.078125-10.722656 0-16h56.800781v16zm248.800781-32c13.253907 0 24 10.746094 24 24s-10.746093 24-24 24c-13.253906 0-24-10.746094-24-24s10.746094-24 24-24zm-39.199219 16c-1.078124 5.277344-1.078124 10.722656 0 16h-56.800781v-16zm63.199219-312h-208v-16h104c3.179688 0 6.058594-1.886719 7.328125-4.800781l11.871094-27.199219h84.800781zm-224 144h-40v-192h161.769531l-7 16h-106.769531c-4.417969 0-8 3.582031-8 8zm240-208h-240v-8h240zm-152 400h-64v-32h64zm-16-48h-32v-8h32zm0-24h-32v-16h32zm0-32h-32v-16h32zm112-32h-248c-22.078125-.027344-39.972656-17.917969-40-40v-224c.027344-22.082031 17.921875-39.972656 40-40h248v16h-192c-4.417969 0-8 3.582031-8 8v16h-32c-4.417969 0-8 3.582031-8 8v208c0 4.417969 3.582031 8 8 8h32v16c0 4.417969 3.582031 8 8 8h192zm56-32h-240v-8h240zm-16-24h-208v-128h208zm0 0"/><path d="m160.707031 152h32v16h-32zm0 0"/><path d="m160.707031 184h96v16h-96zm0 0"/></svg>