<svg height="512" viewBox="0 0 128 128" width="512" xmlns="http://www.w3.org/2000/svg"><g id="Circle_Grid" data-name="Circle Grid"><circle cx="64" cy="64" fill="#ea8953" r="64"/></g><g id="icon"><path d="m61.987 63.67h4.026v35.706h-4.026z" fill="#eeefee"/><path d="m34.8 94.036v-13.323a1.564 1.564 0 0 1 1.564-1.564h55.273a1.564 1.564 0 0 1 1.563 1.564v13.323h-4.025v-10.861h-50.351v10.861z" fill="#eeefee"/><rect fill="#ef5261" height="16.71" rx="8.348" width="16.697" x="82.84" y="88.29"/><rect fill="#da364c" height="12.112" rx="6.049" width="12.097" x="85.139" y="90.588"/><rect fill="#f6c863" height="16.71" rx="8.348" width="16.697" x="55.651" y="88.29"/><rect fill="#eab54e" height="12.112" rx="6.049" width="12.097" x="57.951" y="90.588"/><rect fill="#69b0ee" height="16.71" rx="8.348" width="16.697" x="28.463" y="88.29"/><rect fill="#419be9" height="12.112" rx="6.049" width="12.097" x="30.763" y="90.588"/><path d="m89.434 51.889v-6.929l-5.634-.831a20.146 20.146 0 0 0 -2.766-6.65l3.4-4.578-4.9-4.9-4.59 3.393a19.9 19.9 0 0 0 -6.638-2.76l-.844-5.634h-6.93l-.832 5.633a20.049 20.049 0 0 0 -6.656 2.76l-4.571-3.393-4.9 4.9 3.387 4.578a20.263 20.263 0 0 0 -2.76 6.65l-5.633.831v6.929l5.633.844a20.24 20.24 0 0 0 2.76 6.644l-3.387 4.584 4.9 4.9 4.572-3.4a20.307 20.307 0 0 0 6.655 2.775l.831 5.633h6.93l.843-5.633a20.159 20.159 0 0 0 6.638-2.773l4.59 3.4 4.9-4.9-3.4-4.584a20.124 20.124 0 0 0 2.768-6.645zm-25.434 8.364a11.819 11.819 0 1 1 11.824-11.819 11.818 11.818 0 0 1 -11.824 11.819z" fill="#575b6d"/></g></svg>